<svg width="26" height="26" viewBox="0 0 26 26" fill="none" xmlns="http://www.w3.org/2000/svg">
<path d="M22.75 18.4166V18.9166C23.0261 18.9166 23.25 18.6927 23.25 18.4166H22.75ZM22.75 4.33325H23.25C23.25 4.05711 23.0261 3.83325 22.75 3.83325V4.33325ZM14.0833 18.4166V17.9166C13.8514 17.9166 13.65 18.076 13.5967 18.3017C13.5434 18.5274 13.6523 18.7601 13.8597 18.8638L14.0833 18.4166ZM14.0833 18.4166L14.3607 18.8326C14.509 18.7338 14.5935 18.5634 14.5824 18.3855C14.5713 18.2076 14.4664 18.0491 14.307 17.9694L14.0833 18.4166ZM7.58334 22.7499H7.08334C7.08334 22.9343 7.18483 23.1038 7.34741 23.1908C7.50999 23.2778 7.70726 23.2682 7.86069 23.166L7.58334 22.7499ZM7.58334 18.4166H8.08334C8.08334 18.1404 7.85948 17.9166 7.58334 17.9166V18.4166ZM3.25 18.4166H2.75C2.75 18.6927 2.97386 18.9166 3.25 18.9166V18.4166ZM3.25 4.33325V3.83325C2.97386 3.83325 2.75 4.05711 2.75 4.33325H3.25ZM23.25 18.4166V4.33325H22.25V18.4166H23.25ZM14.0833 18.9166H22.75V17.9166H14.0833V18.9166ZM14.307 17.9694L14.3069 17.9694L13.8597 18.8638L13.8597 18.8638L14.307 17.9694ZM7.86069 23.166L14.3607 18.8326L13.806 18.0006L7.30599 22.3339L7.86069 23.166ZM7.08334 18.4166V22.7499H8.08334V18.4166H7.08334ZM3.25 18.9166H7.58334V17.9166H3.25V18.9166ZM2.75 4.33325V18.4166H3.75V4.33325H2.75ZM22.75 3.83325H3.25V4.83325H22.75V3.83325Z" fill="#8B8B8B"/>
</svg>
