<svg width="25" height="25" viewBox="0 0 25 25" fill="none" xmlns="http://www.w3.org/2000/svg">
<path d="M5.72852 20.3125C5.72852 20.3125 9.37435 18.75 10.416 17.7083C11.4577 16.6667 8.33268 16.6667 8.33268 11.4583C8.33268 6.25 12.4993 6.25 12.4993 6.25C12.4993 6.25 16.666 6.25 16.666 11.4583C16.666 16.6667 13.541 16.6667 14.5827 17.7083C15.6243 18.75 19.2702 20.3125 19.2702 20.3125" stroke="#8B8B8B" stroke-linecap="round"/>
<path fill-rule="evenodd" clip-rule="evenodd" d="M12.5007 22.9166C18.2536 22.9166 22.9173 18.2529 22.9173 12.4999C22.9173 6.74695 18.2536 2.08325 12.5007 2.08325C6.74769 2.08325 2.08398 6.74695 2.08398 12.4999C2.08398 18.2529 6.74769 22.9166 12.5007 22.9166Z" stroke="#8B8B8B"/>
</svg>
